<svg id="visual" viewBox="0 0 1920 1080" width="1920" height="1080"
    xmlns="http://www.w3.org/2000/svg" xmlns:xlink="http://www.w3.org/1999/xlink" version="1.1">
    <rect width="1920" height="1080" fill="#ffffff"></rect>
    <g>
        <g transform="translate(7 178)">
            <path
                d="M0 -111.9L79.1 -79.1L111.9 0L79.1 79.1L0 111.9L-79.1 79.1L-111.9 0L-79.1 -79.1Z"
                fill="#8097a1"></path>
        </g>
        <g transform="translate(1168 275)">
            <path d="M0 -63L44.5 -44.5L63 0L44.5 44.5L0 63L-44.5 44.5L-63 0L-44.5 -44.5Z"
                fill="#8097a1"></path>
        </g>
        <g transform="translate(277 13)">
            <path d="M0 -91L64.3 -64.3L91 0L64.3 64.3L0 91L-64.3 64.3L-91 0L-64.3 -64.3Z"
                fill="#8097a1"></path>
        </g>
        <g transform="translate(678 353)">
            <path d="M0 -67L47.4 -47.4L67 0L47.4 47.4L0 67L-47.4 47.4L-67 0L-47.4 -47.4Z"
                fill="#8097a1"></path>
        </g>
        <g transform="translate(878 701)">
            <path d="M0 -84L59.4 -59.4L84 0L59.4 59.4L0 84L-59.4 59.4L-84 0L-59.4 -59.4Z"
                fill="#8097a1"></path>
        </g>
        <g transform="translate(1838 468)">
            <path d="M0 -79L55.9 -55.9L79 0L55.9 55.9L0 79L-55.9 55.9L-79 0L-55.9 -55.9Z"
                fill="#8097a1"></path>
        </g>
        <g transform="translate(1551 803)">
            <path d="M0 -105L74.2 -74.2L105 0L74.2 74.2L0 105L-74.2 74.2L-105 0L-74.2 -74.2Z"
                fill="#8097a1"></path>
        </g>
        <g transform="translate(376 782)">
            <path d="M0 -52L36.8 -36.8L52 0L36.8 36.8L0 52L-36.8 36.8L-52 0L-36.8 -36.8Z"
                fill="#8097a1"></path>
        </g>
        <g transform="translate(1132 1043)">
            <path d="M0 -84L59.4 -59.4L84 0L59.4 59.4L0 84L-59.4 59.4L-84 0L-59.4 -59.4Z"
                fill="#8097a1"></path>
        </g>
        <g transform="translate(1444 1053)">
            <path d="M0 -107L75.7 -75.7L107 0L75.7 75.7L0 107L-75.7 75.7L-107 0L-75.7 -75.7Z"
                fill="#8097a1"></path>
        </g>
        <g transform="translate(1015 14)">
            <path d="M0 -78L55.2 -55.2L78 0L55.2 55.2L0 78L-55.2 55.2L-78 0L-55.2 -55.2Z"
                fill="#8097a1"></path>
        </g>
        <g transform="translate(26 957)">
            <path d="M0 -100L70.7 -70.7L100 0L70.7 70.7L0 100L-70.7 70.7L-100 0L-70.7 -70.7Z"
                fill="#8097a1"></path>
        </g>
        <g transform="translate(1705 1045)">
            <path d="M0 -72L50.9 -50.9L72 0L50.9 50.9L0 72L-50.9 50.9L-72 0L-50.9 -50.9Z"
                fill="#8097a1"></path>
        </g>
        <g transform="translate(1826 3)">
            <path d="M0 -42L29.7 -29.7L42 0L29.7 29.7L0 42L-29.7 29.7L-42 0L-29.7 -29.7Z"
                fill="#8097a1"></path>
        </g>
        <g transform="translate(132 570)">
            <path d="M0 -61L43.1 -43.1L61 0L43.1 43.1L0 61L-43.1 43.1L-61 0L-43.1 -43.1Z"
                fill="#8097a1"></path>
        </g>
        <g transform="translate(650 714)">
            <path d="M0 -105L74.2 -74.2L105 0L74.2 74.2L0 105L-74.2 74.2L-105 0L-74.2 -74.2Z"
                fill="#8097a1"></path>
        </g>
        <g transform="translate(990 441)">
            <path d="M0 -109L77.1 -77.1L109 0L77.1 77.1L0 109L-77.1 77.1L-109 0L-77.1 -77.1Z"
                fill="#8097a1"></path>
        </g>
        <g transform="translate(322 438)">
            <path d="M0 -62L43.8 -43.8L62 0L43.8 43.8L0 62L-43.8 43.8L-62 0L-43.8 -43.8Z"
                fill="#8097a1"></path>
        </g>
        <g transform="translate(931 933)">
            <path d="M0 -92L65.1 -65.1L92 0L65.1 65.1L0 92L-65.1 65.1L-92 0L-65.1 -65.1Z"
                fill="#8097a1"></path>
        </g>
        <g transform="translate(1532 566)">
            <path d="M0 -108L76.4 -76.4L108 0L76.4 76.4L0 108L-76.4 76.4L-108 0L-76.4 -76.4Z"
                fill="#8097a1"></path>
        </g>
        <g transform="translate(1108 790)">
            <path d="M0 -109L77.1 -77.1L109 0L77.1 77.1L0 109L-77.1 77.1L-109 0L-77.1 -77.1Z"
                fill="#8097a1"></path>
        </g>
        <g transform="translate(719 1047)">
            <path d="M0 -61L43.1 -43.1L61 0L43.1 43.1L0 61L-43.1 43.1L-61 0L-43.1 -43.1Z"
                fill="#8097a1"></path>
        </g>
        <g transform="translate(796 85)">
            <path d="M0 -80L56.6 -56.6L80 0L56.6 56.6L0 80L-56.6 56.6L-80 0L-56.6 -56.6Z"
                fill="#8097a1"></path>
        </g>
        <g transform="translate(1549 101)">
            <path d="M0 -92L65.1 -65.1L92 0L65.1 65.1L0 92L-65.1 65.1L-92 0L-65.1 -65.1Z"
                fill="#8097a1"></path>
        </g>
        <g transform="translate(1821 735)">
            <path d="M0 -43L30.4 -30.4L43 0L30.4 30.4L0 43L-30.4 30.4L-43 0L-30.4 -30.4Z"
                fill="#8097a1"></path>
        </g>
        <g transform="translate(1376 384)">
            <path d="M0 -63L44.5 -44.5L63 0L44.5 44.5L0 63L-44.5 44.5L-63 0L-44.5 -44.5Z"
                fill="#8097a1"></path>
        </g>
        <g transform="translate(515 166)">
            <path d="M0 -98L69.3 -69.3L98 0L69.3 69.3L0 98L-69.3 69.3L-98 0L-69.3 -69.3Z"
                fill="#8097a1"></path>
        </g>
        <g transform="translate(1910 945)">
            <path d="M0 -104L73.5 -73.5L104 0L73.5 73.5L0 104L-73.5 73.5L-104 0L-73.5 -73.5Z"
                fill="#8097a1"></path>
        </g>
        <g transform="translate(1306 8)">
            <path d="M0 -82L58 -58L82 0L58 58L0 82L-58 58L-82 0L-58 -58Z" fill="#8097a1"></path>
        </g>
        <g transform="translate(1314 653)">
            <path d="M0 -53L37.5 -37.5L53 0L37.5 37.5L0 53L-37.5 37.5L-53 0L-37.5 -37.5Z"
                fill="#8097a1"></path>
        </g>
        <g transform="translate(309 1043)">
            <path d="M0 -63L44.5 -44.5L63 0L44.5 44.5L0 63L-44.5 44.5L-63 0L-44.5 -44.5Z"
                fill="#8097a1"></path>
        </g>
        <g transform="translate(1616 319)">
            <path d="M0 -53L37.5 -37.5L53 0L37.5 37.5L0 53L-37.5 37.5L-53 0L-37.5 -37.5Z"
                fill="#8097a1"></path>
        </g>
        <g transform="translate(1899 246)">
            <path d="M0 -110L77.8 -77.8L110 0L77.8 77.8L0 110L-77.8 77.8L-110 0L-77.8 -77.8Z"
                fill="#8097a1"></path>
        </g>
    </g>
</svg>