<svg id="visual" viewBox="0 0 1920 1080" width="1920" height="1080" xmlns="http://www.w3.org/2000/svg" xmlns:xlink="http://www.w3.org/1999/xlink" version="1.1"><g stroke-width="1" stroke-linejoin="bevel"><path d="M910 590L831.9 484L773.9 632Z" fill="#a8aaac" stroke="#a8aaac"></path><path d="M986 392L838.9 442L831.9 484Z" fill="#dededf" stroke="#dededf"></path><path d="M831.9 484L622.7 511L773.9 632Z" fill="#a8aaac" stroke="#a8aaac"></path><path d="M752.7 352L622.7 511L831.9 484Z" fill="#c8c9ca" stroke="#c8c9ca"></path><path d="M884.9 790L956 741L910 590Z" fill="#dededf" stroke="#dededf"></path><path d="M956 741L1003 697L910 590Z" fill="#dededf" stroke="#dededf"></path><path d="M910 590L986 392L831.9 484Z" fill="#d3d4d4" stroke="#d3d4d4"></path><path d="M650.7 740L884.9 790L773.9 632Z" fill="#9ea0a2" stroke="#9ea0a2"></path><path d="M773.9 632L884.9 790L910 590Z" fill="#dededf" stroke="#dededf"></path><path d="M838.9 442L752.7 352L831.9 484Z" fill="#a8aaac" stroke="#a8aaac"></path><path d="M622.7 511L613.6 651L773.9 632Z" fill="#b3b4b6" stroke="#b3b4b6"></path><path d="M1092.1 513L986 392L910 590Z" fill="#f4f4f4" stroke="#f4f4f4"></path><path d="M838.9 442L795.9 251L752.7 352Z" fill="#b3b4b6" stroke="#b3b4b6"></path><path d="M613.6 651L650.7 740L773.9 632Z" fill="#ffffff" stroke="#ffffff"></path><path d="M1003 697L1092.1 513L910 590Z" fill="#f4f4f4" stroke="#f4f4f4"></path><path d="M956 741L1073.1 702L1003 697Z" fill="#e9e9ea" stroke="#e9e9ea"></path><path d="M1003 697L1073.1 702L1092.1 513Z" fill="#b3b4b6" stroke="#b3b4b6"></path><path d="M1042.1 875L1073.1 702L956 741Z" fill="#c8c9ca" stroke="#c8c9ca"></path><path d="M752.7 352L605.6 382L622.7 511Z" fill="#ffffff" stroke="#ffffff"></path><path d="M622.7 511L523.6 553L613.6 651Z" fill="#c8c9ca" stroke="#c8c9ca"></path><path d="M1092.1 513L1083.1 414L986 392Z" fill="#f4f4f4" stroke="#f4f4f4"></path><path d="M466.4 434L523.6 553L622.7 511Z" fill="#a8aaac" stroke="#a8aaac"></path><path d="M613.6 651L584.6 774L650.7 740Z" fill="#ffffff" stroke="#ffffff"></path><path d="M584.6 774L696.7 850L650.7 740Z" fill="#c8c9ca" stroke="#c8c9ca"></path><path d="M650.7 740L696.7 850L884.9 790Z" fill="#b3b4b6" stroke="#b3b4b6"></path><path d="M986 392L795.9 251L838.9 442Z" fill="#ffffff" stroke="#ffffff"></path><path d="M752.7 352L661.7 201L605.6 382Z" fill="#dededf" stroke="#dededf"></path><path d="M999 276L795.9 251L986 392Z" fill="#ffffff" stroke="#ffffff"></path><path d="M474.4 613L584.6 774L613.6 651Z" fill="#ffffff" stroke="#ffffff"></path><path d="M1083.1 414L999 276L986 392Z" fill="#e9e9ea" stroke="#e9e9ea"></path><path d="M377.4 481L474.4 613L523.6 553Z" fill="#949698" stroke="#949698"></path><path d="M523.6 553L474.4 613L613.6 651Z" fill="#f4f4f4" stroke="#f4f4f4"></path><path d="M884.9 790L1042.1 875L956 741Z" fill="#949698" stroke="#949698"></path><path d="M866.9 954L1042.1 875L884.9 790Z" fill="#f4f4f4" stroke="#f4f4f4"></path><path d="M504.6 240L466.4 434L605.6 382Z" fill="#dededf" stroke="#dededf"></path><path d="M605.6 382L466.4 434L622.7 511Z" fill="#949698" stroke="#949698"></path><path d="M696.7 850L866.9 954L884.9 790Z" fill="#ffffff" stroke="#ffffff"></path><path d="M1243.3 501L1187.3 404L1092.1 513Z" fill="#f4f4f4" stroke="#f4f4f4"></path><path d="M1092.1 513L1187.3 404L1083.1 414Z" fill="#bdbfc0" stroke="#bdbfc0"></path><path d="M1083.1 414L1137.1 310L999 276Z" fill="#a8aaac" stroke="#a8aaac"></path><path d="M1243.3 501L1092.1 513L1287.3 628Z" fill="#bdbfc0" stroke="#bdbfc0"></path><path d="M590.6 979L729.7 952L696.7 850Z" fill="#ffffff" stroke="#ffffff"></path><path d="M696.7 850L729.7 952L866.9 954Z" fill="#9ea0a2" stroke="#9ea0a2"></path><path d="M999 276L818.9 171L795.9 251Z" fill="#e9e9ea" stroke="#e9e9ea"></path><path d="M795.9 251L661.7 201L752.7 352Z" fill="#b3b4b6" stroke="#b3b4b6"></path><path d="M1187.3 404L1137.1 310L1083.1 414Z" fill="#c8c9ca" stroke="#c8c9ca"></path><path d="M999 276L1003 173L818.9 171Z" fill="#a8aaac" stroke="#a8aaac"></path><path d="M754.7 125L661.7 201L795.9 251Z" fill="#b3b4b6" stroke="#b3b4b6"></path><path d="M1042.1 875L1173.3 805L1073.1 702Z" fill="#949698" stroke="#949698"></path><path d="M1287.3 628L1092.1 513L1073.1 702Z" fill="#a8aaac" stroke="#a8aaac"></path><path d="M1190.3 227L1122.1 179L1137.1 310Z" fill="#9ea0a2" stroke="#9ea0a2"></path><path d="M1042.1 875L1068.1 924L1173.3 805Z" fill="#bdbfc0" stroke="#bdbfc0"></path><path d="M980 986L1068.1 924L1042.1 875Z" fill="#b3b4b6" stroke="#b3b4b6"></path><path d="M1122.1 179L1003 173L999 276Z" fill="#e9e9ea" stroke="#e9e9ea"></path><path d="M963 1080L980 986L866.9 954Z" fill="#c8c9ca" stroke="#c8c9ca"></path><path d="M866.9 954L980 986L1042.1 875Z" fill="#949698" stroke="#949698"></path><path d="M863.9 0L754.7 125L818.9 171Z" fill="#f4f4f4" stroke="#f4f4f4"></path><path d="M818.9 171L754.7 125L795.9 251Z" fill="#b3b4b6" stroke="#b3b4b6"></path><path d="M309.3 379L377.4 481L466.4 434Z" fill="#b3b4b6" stroke="#b3b4b6"></path><path d="M466.4 434L377.4 481L523.6 553Z" fill="#d3d4d4" stroke="#d3d4d4"></path><path d="M433.4 849L590.6 979L584.6 774Z" fill="#bdbfc0" stroke="#bdbfc0"></path><path d="M537.6 87L504.6 240L661.7 201Z" fill="#dededf" stroke="#dededf"></path><path d="M661.7 201L504.6 240L605.6 382Z" fill="#c8c9ca" stroke="#c8c9ca"></path><path d="M1173.3 805L1287.3 628L1073.1 702Z" fill="#b3b4b6" stroke="#b3b4b6"></path><path d="M1287.3 628L1302.4 546L1243.3 501Z" fill="#ffffff" stroke="#ffffff"></path><path d="M1243.3 501L1348.4 341L1187.3 404Z" fill="#d3d4d4" stroke="#d3d4d4"></path><path d="M433.4 849L584.6 774L474.4 613Z" fill="#b3b4b6" stroke="#b3b4b6"></path><path d="M584.6 774L590.6 979L696.7 850Z" fill="#9ea0a2" stroke="#9ea0a2"></path><path d="M729.7 952L814.9 1080L866.9 954Z" fill="#b3b4b6" stroke="#b3b4b6"></path><path d="M316.3 772L433.4 849L474.4 613Z" fill="#9ea0a2" stroke="#9ea0a2"></path><path d="M1190.3 227L1137.1 310L1302.4 252Z" fill="#9ea0a2" stroke="#9ea0a2"></path><path d="M1137.1 310L1122.1 179L999 276Z" fill="#a8aaac" stroke="#a8aaac"></path><path d="M1003 173L863.9 0L818.9 171Z" fill="#e9e9ea" stroke="#e9e9ea"></path><path d="M1302.4 252L1137.1 310L1187.3 404Z" fill="#949698" stroke="#949698"></path><path d="M642.7 1080L814.9 1080L729.7 952Z" fill="#a8aaac" stroke="#a8aaac"></path><path d="M1173.3 805L1327.4 696L1287.3 628Z" fill="#9ea0a2" stroke="#9ea0a2"></path><path d="M1287.3 628L1483.6 676L1302.4 546Z" fill="#f4f4f4" stroke="#f4f4f4"></path><path d="M1314.4 864L1327.4 696L1173.3 805Z" fill="#f4f4f4" stroke="#f4f4f4"></path><path d="M309.3 379L304.3 500L377.4 481Z" fill="#949698" stroke="#949698"></path><path d="M377.4 481L304.3 500L474.4 613Z" fill="#dededf" stroke="#dededf"></path><path d="M814.9 1080L963 1080L866.9 954Z" fill="#a8aaac" stroke="#a8aaac"></path><path d="M980 986L1122.1 1080L1068.1 924Z" fill="#bdbfc0" stroke="#bdbfc0"></path><path d="M1068.1 924L1294.3 893L1173.3 805Z" fill="#e9e9ea" stroke="#e9e9ea"></path><path d="M441.4 85L372.4 273L504.6 240Z" fill="#d3d4d4" stroke="#d3d4d4"></path><path d="M504.6 240L372.4 273L466.4 434Z" fill="#b3b4b6" stroke="#b3b4b6"></path><path d="M590.6 979L642.7 1080L729.7 952Z" fill="#f4f4f4" stroke="#f4f4f4"></path><path d="M605.6 1080L642.7 1080L590.6 979Z" fill="#a8aaac" stroke="#a8aaac"></path><path d="M304.3 500L316.3 772L474.4 613Z" fill="#c8c9ca" stroke="#c8c9ca"></path><path d="M453.4 1080L605.6 1080L590.6 979Z" fill="#a8aaac" stroke="#a8aaac"></path><path d="M372.4 273L309.3 379L466.4 434Z" fill="#b3b4b6" stroke="#b3b4b6"></path><path d="M380.4 920L590.6 979L433.4 849Z" fill="#9ea0a2" stroke="#9ea0a2"></path><path d="M590.6 0L537.6 87L661.7 201Z" fill="#ffffff" stroke="#ffffff"></path><path d="M590.6 0L661.7 201L754.7 125Z" fill="#f4f4f4" stroke="#f4f4f4"></path><path d="M1450.6 457L1348.4 341L1302.4 546Z" fill="#a8aaac" stroke="#a8aaac"></path><path d="M1302.4 546L1348.4 341L1243.3 501Z" fill="#c8c9ca" stroke="#c8c9ca"></path><path d="M1212.3 1080L1294.3 893L1068.1 924Z" fill="#b3b4b6" stroke="#b3b4b6"></path><path d="M1294.3 893L1314.4 864L1173.3 805Z" fill="#a8aaac" stroke="#a8aaac"></path><path d="M973 0L863.9 0L1003 173Z" fill="#c8c9ca" stroke="#c8c9ca"></path><path d="M1195.3 0L1088.1 0L1122.1 179Z" fill="#b3b4b6" stroke="#b3b4b6"></path><path d="M1088.1 0L973 0L1003 173Z" fill="#ffffff" stroke="#ffffff"></path><path d="M1348.4 341L1302.4 252L1187.3 404Z" fill="#dededf" stroke="#dededf"></path><path d="M312.3 903L380.4 920L433.4 849Z" fill="#ffffff" stroke="#ffffff"></path><path d="M863.9 0L715.7 0L754.7 125Z" fill="#9ea0a2" stroke="#9ea0a2"></path><path d="M1212.3 1080L1309.4 897L1294.3 893Z" fill="#dededf" stroke="#dededf"></path><path d="M1294.3 893L1309.4 897L1314.4 864Z" fill="#949698" stroke="#949698"></path><path d="M1088.1 0L1003 173L1122.1 179Z" fill="#c8c9ca" stroke="#c8c9ca"></path><path d="M963 1080L1122.1 1080L980 986Z" fill="#9ea0a2" stroke="#9ea0a2"></path><path d="M316.3 772L312.3 903L433.4 849Z" fill="#dededf" stroke="#dededf"></path><path d="M380.4 920L453.4 1080L590.6 979Z" fill="#9ea0a2" stroke="#9ea0a2"></path><path d="M192.1 876L312.3 903L316.3 772Z" fill="#bdbfc0" stroke="#bdbfc0"></path><path d="M715.7 0L590.6 0L754.7 125Z" fill="#b3b4b6" stroke="#b3b4b6"></path><path d="M537.6 87L441.4 85L504.6 240Z" fill="#a8aaac" stroke="#a8aaac"></path><path d="M590.6 0L441.4 85L537.6 87Z" fill="#c8c9ca" stroke="#c8c9ca"></path><path d="M372.4 273L250.3 263L309.3 379Z" fill="#a8aaac" stroke="#a8aaac"></path><path d="M1267.3 73L1122.1 179L1190.3 227Z" fill="#d3d4d4" stroke="#d3d4d4"></path><path d="M1483.6 676L1450.6 457L1302.4 546Z" fill="#dededf" stroke="#dededf"></path><path d="M1367.4 80L1267.3 73L1302.4 252Z" fill="#c8c9ca" stroke="#c8c9ca"></path><path d="M1483.6 676L1287.3 628L1327.4 696Z" fill="#f4f4f4" stroke="#f4f4f4"></path><path d="M1483.6 676L1327.4 696L1456.6 910Z" fill="#9ea0a2" stroke="#9ea0a2"></path><path d="M262.3 1080L453.4 1080L380.4 920Z" fill="#949698" stroke="#949698"></path><path d="M169.1 511L204.3 685L304.3 500Z" fill="#d3d4d4" stroke="#d3d4d4"></path><path d="M304.3 500L204.3 685L316.3 772Z" fill="#d3d4d4" stroke="#d3d4d4"></path><path d="M1122.1 1080L1212.3 1080L1068.1 924Z" fill="#d3d4d4" stroke="#d3d4d4"></path><path d="M292.3 100L250.3 263L372.4 273Z" fill="#b3b4b6" stroke="#b3b4b6"></path><path d="M170.1 410L169.1 511L304.3 500Z" fill="#9ea0a2" stroke="#9ea0a2"></path><path d="M1482.6 270L1302.4 252L1348.4 341Z" fill="#949698" stroke="#949698"></path><path d="M1302.4 252L1267.3 73L1190.3 227Z" fill="#ffffff" stroke="#ffffff"></path><path d="M170.1 410L304.3 500L309.3 379Z" fill="#bdbfc0" stroke="#bdbfc0"></path><path d="M1456.6 910L1314.4 864L1309.4 897Z" fill="#f4f4f4" stroke="#f4f4f4"></path><path d="M1456.6 910L1327.4 696L1314.4 864Z" fill="#c8c9ca" stroke="#c8c9ca"></path><path d="M1267.3 73L1195.3 0L1122.1 179Z" fill="#e9e9ea" stroke="#e9e9ea"></path><path d="M250.3 263L170.1 410L309.3 379Z" fill="#bdbfc0" stroke="#bdbfc0"></path><path d="M125.1 691L192.1 876L204.3 685Z" fill="#bdbfc0" stroke="#bdbfc0"></path><path d="M204.3 685L192.1 876L316.3 772Z" fill="#ffffff" stroke="#ffffff"></path><path d="M312.3 903L262.3 1080L380.4 920Z" fill="#ffffff" stroke="#ffffff"></path><path d="M441.4 85L292.3 100L372.4 273Z" fill="#9ea0a2" stroke="#9ea0a2"></path><path d="M250.3 263L123.1 262L170.1 410Z" fill="#f4f4f4" stroke="#f4f4f4"></path><path d="M373.4 0L292.3 100L441.4 85Z" fill="#dededf" stroke="#dededf"></path><path d="M169.1 511L125.1 691L204.3 685Z" fill="#d3d4d4" stroke="#d3d4d4"></path><path d="M0 479L125.1 691L169.1 511Z" fill="#949698" stroke="#949698"></path><path d="M1386.4 1080L1456.6 910L1309.4 897Z" fill="#bdbfc0" stroke="#bdbfc0"></path><path d="M1582.7 529L1482.6 270L1450.6 457Z" fill="#ffffff" stroke="#ffffff"></path><path d="M1450.6 457L1482.6 270L1348.4 341Z" fill="#949698" stroke="#949698"></path><path d="M1267.3 73L1413.4 0L1195.3 0Z" fill="#f4f4f4" stroke="#f4f4f4"></path><path d="M1482.6 270L1367.4 80L1302.4 252Z" fill="#e9e9ea" stroke="#e9e9ea"></path><path d="M590.6 0L373.4 0L441.4 85Z" fill="#e9e9ea" stroke="#e9e9ea"></path><path d="M1695.7 735L1559.6 595L1483.6 676Z" fill="#f4f4f4" stroke="#f4f4f4"></path><path d="M1483.6 676L1559.6 595L1450.6 457Z" fill="#b3b4b6" stroke="#b3b4b6"></path><path d="M125.1 691L148.1 877L192.1 876Z" fill="#dededf" stroke="#dededf"></path><path d="M192.1 876L262.3 1080L312.3 903Z" fill="#d3d4d4" stroke="#d3d4d4"></path><path d="M1559.6 595L1582.7 529L1450.6 457Z" fill="#dededf" stroke="#dededf"></path><path d="M1729.9 499L1582.7 529L1559.6 595Z" fill="#9ea0a2" stroke="#9ea0a2"></path><path d="M1212.3 1080L1386.4 1080L1309.4 897Z" fill="#e9e9ea" stroke="#e9e9ea"></path><path d="M154.1 1080L262.3 1080L192.1 876Z" fill="#a8aaac" stroke="#a8aaac"></path><path d="M1594.7 812L1555.6 812L1625.7 934Z" fill="#949698" stroke="#949698"></path><path d="M1456.6 910L1555.6 812L1483.6 676Z" fill="#d3d4d4" stroke="#d3d4d4"></path><path d="M201.1 97L123.1 262L250.3 263Z" fill="#949698" stroke="#949698"></path><path d="M170.1 410L0 479L169.1 511Z" fill="#f4f4f4" stroke="#f4f4f4"></path><path d="M201.1 97L250.3 263L292.3 100Z" fill="#e9e9ea" stroke="#e9e9ea"></path><path d="M373.4 0L294.3 0L292.3 100Z" fill="#e9e9ea" stroke="#e9e9ea"></path><path d="M294.3 0L201.1 97L292.3 100Z" fill="#949698" stroke="#949698"></path><path d="M1625.7 934L1555.6 812L1456.6 910Z" fill="#bdbfc0" stroke="#bdbfc0"></path><path d="M1555.6 812L1594.7 812L1483.6 676Z" fill="#dededf" stroke="#dededf"></path><path d="M1386.4 1080L1458.6 1080L1456.6 910Z" fill="#f4f4f4" stroke="#f4f4f4"></path><path d="M1451.6 0L1413.4 0L1367.4 80Z" fill="#9ea0a2" stroke="#9ea0a2"></path><path d="M1367.4 80L1413.4 0L1267.3 73Z" fill="#dededf" stroke="#dededf"></path><path d="M1554.6 196L1367.4 80L1482.6 270Z" fill="#f4f4f4" stroke="#f4f4f4"></path><path d="M1664.7 263L1554.6 196L1482.6 270Z" fill="#ffffff" stroke="#ffffff"></path><path d="M0 377L170.1 410L123.1 262Z" fill="#f4f4f4" stroke="#f4f4f4"></path><path d="M0 377L0 479L170.1 410Z" fill="#d3d4d4" stroke="#d3d4d4"></path><path d="M125.1 691L0 748L148.1 877Z" fill="#b3b4b6" stroke="#b3b4b6"></path><path d="M0 479L0 698L125.1 691Z" fill="#a8aaac" stroke="#a8aaac"></path><path d="M148.1 877L154.1 1080L192.1 876Z" fill="#9ea0a2" stroke="#9ea0a2"></path><path d="M1554.6 196L1451.6 0L1367.4 80Z" fill="#c8c9ca" stroke="#c8c9ca"></path><path d="M0 957L154.1 1080L148.1 877Z" fill="#f4f4f4" stroke="#f4f4f4"></path><path d="M0 698L0 748L125.1 691Z" fill="#dededf" stroke="#dededf"></path><path d="M0 314L0 377L123.1 262Z" fill="#ffffff" stroke="#ffffff"></path><path d="M0 129L0 314L123.1 262Z" fill="#f4f4f4" stroke="#f4f4f4"></path><path d="M1458.6 1080L1625.7 934L1456.6 910Z" fill="#9ea0a2" stroke="#9ea0a2"></path><path d="M1594.7 812L1695.7 735L1483.6 676Z" fill="#a8aaac" stroke="#a8aaac"></path><path d="M1582.7 529L1664.7 263L1482.6 270Z" fill="#c8c9ca" stroke="#c8c9ca"></path><path d="M1625.7 934L1695.7 735L1594.7 812Z" fill="#ffffff" stroke="#ffffff"></path><path d="M1712.7 455L1664.7 263L1582.7 529Z" fill="#a8aaac" stroke="#a8aaac"></path><path d="M1554.6 196L1599.7 0L1451.6 0Z" fill="#9ea0a2" stroke="#9ea0a2"></path><path d="M1729.9 499L1712.7 455L1582.7 529Z" fill="#dededf" stroke="#dededf"></path><path d="M1664.7 263L1632.7 178L1554.6 196Z" fill="#9ea0a2" stroke="#9ea0a2"></path><path d="M294.3 0L134.1 0L201.1 97Z" fill="#949698" stroke="#949698"></path><path d="M201.1 97L0 129L123.1 262Z" fill="#949698" stroke="#949698"></path><path d="M1712.7 455L1799.9 337L1664.7 263Z" fill="#bdbfc0" stroke="#bdbfc0"></path><path d="M1695.7 735L1729.9 499L1559.6 595Z" fill="#d3d4d4" stroke="#d3d4d4"></path><path d="M0 748L0 957L148.1 877Z" fill="#e9e9ea" stroke="#e9e9ea"></path><path d="M134.1 0L0 129L201.1 97Z" fill="#9ea0a2" stroke="#9ea0a2"></path><path d="M1817.9 166L1632.7 178L1664.7 263Z" fill="#c8c9ca" stroke="#c8c9ca"></path><path d="M1817.9 166L1599.7 0L1632.7 178Z" fill="#9ea0a2" stroke="#9ea0a2"></path><path d="M1632.7 178L1599.7 0L1554.6 196Z" fill="#9ea0a2" stroke="#9ea0a2"></path><path d="M0 957L0 1080L154.1 1080Z" fill="#ffffff" stroke="#ffffff"></path><path d="M1920 475L1799.9 337L1729.9 499Z" fill="#f4f4f4" stroke="#f4f4f4"></path><path d="M1729.9 499L1799.9 337L1712.7 455Z" fill="#c8c9ca" stroke="#c8c9ca"></path><path d="M1458.6 1080L1691.7 1080L1625.7 934Z" fill="#c8c9ca" stroke="#c8c9ca"></path><path d="M1823.9 801L1823.9 733L1695.7 735Z" fill="#a8aaac" stroke="#a8aaac"></path><path d="M1695.7 735L1823.9 733L1729.9 499Z" fill="#a8aaac" stroke="#a8aaac"></path><path d="M134.1 0L0 0L0 129Z" fill="#d3d4d4" stroke="#d3d4d4"></path><path d="M1823.9 801L1695.7 735L1797.9 940Z" fill="#b3b4b6" stroke="#b3b4b6"></path><path d="M1797.9 940L1695.7 735L1625.7 934Z" fill="#d3d4d4" stroke="#d3d4d4"></path><path d="M1691.7 1080L1797.9 940L1625.7 934Z" fill="#bdbfc0" stroke="#bdbfc0"></path><path d="M1691.7 1080L1750.9 1080L1797.9 940Z" fill="#b3b4b6" stroke="#b3b4b6"></path><path d="M1920 257L1838.9 235L1799.9 337Z" fill="#d3d4d4" stroke="#d3d4d4"></path><path d="M1799.9 337L1838.9 235L1664.7 263Z" fill="#ffffff" stroke="#ffffff"></path><path d="M1920 475L1729.9 499L1823.9 733Z" fill="#e9e9ea" stroke="#e9e9ea"></path><path d="M1838.9 235L1817.9 166L1664.7 263Z" fill="#f4f4f4" stroke="#f4f4f4"></path><path d="M1920 716L1920 475L1823.9 733Z" fill="#e9e9ea" stroke="#e9e9ea"></path><path d="M1838.9 235L1920 126L1817.9 166Z" fill="#9ea0a2" stroke="#9ea0a2"></path><path d="M1920 716L1823.9 733L1920 795Z" fill="#949698" stroke="#949698"></path><path d="M1920 795L1823.9 801L1920 898Z" fill="#d3d4d4" stroke="#d3d4d4"></path><path d="M1920 795L1823.9 733L1823.9 801Z" fill="#b3b4b6" stroke="#b3b4b6"></path><path d="M1920 475L1920 367L1799.9 337Z" fill="#dededf" stroke="#dededf"></path><path d="M1920 898L1823.9 801L1797.9 940Z" fill="#d3d4d4" stroke="#d3d4d4"></path><path d="M1920 367L1920 257L1799.9 337Z" fill="#b3b4b6" stroke="#b3b4b6"></path><path d="M1920 1080L1920 898L1797.9 940Z" fill="#a8aaac" stroke="#a8aaac"></path><path d="M1817.9 166L1839.9 0L1599.7 0Z" fill="#e9e9ea" stroke="#e9e9ea"></path><path d="M1920 126L1839.9 0L1817.9 166Z" fill="#dededf" stroke="#dededf"></path><path d="M1920 257L1920 126L1838.9 235Z" fill="#bdbfc0" stroke="#bdbfc0"></path><path d="M1750.9 1080L1920 1080L1797.9 940Z" fill="#a8aaac" stroke="#a8aaac"></path><path d="M1920 126L1920 0L1839.9 0Z" fill="#dededf" stroke="#dededf"></path></g></svg>