<svg id="visual" viewBox="0 0 1920 1080" width="1920" height="1080" xmlns="http://www.w3.org/2000/svg" xmlns:xlink="http://www.w3.org/1999/xlink" version="1.1"><path d="M0 120L107 120L213 55L320 55L427 33L533 131L640 152L747 120L853 152L960 87L1067 87L1173 33L1280 55L1387 33L1493 33L1600 33L1707 77L1813 77L1920 87L1920 0L1813 0L1707 0L1600 0L1493 0L1387 0L1280 0L1173 0L1067 0L960 0L853 0L747 0L640 0L533 0L427 0L320 0L213 0L107 0L0 0Z" fill="#001122"></path><path d="M0 519L107 357L213 347L320 271L427 433L533 282L640 433L747 379L853 293L960 239L1067 401L1173 368L1280 293L1387 260L1493 390L1600 303L1707 573L1813 606L1920 509L1920 85L1813 75L1707 75L1600 31L1493 31L1387 31L1280 53L1173 31L1067 85L960 85L853 150L747 118L640 150L533 129L427 31L320 53L213 53L107 118L0 118Z" fill="#001f49"></path><path d="M0 606L107 390L213 444L320 390L427 509L533 325L640 476L747 498L853 325L960 368L1067 487L1173 455L1280 390L1387 293L1493 433L1600 336L1707 681L1813 671L1920 541L1920 507L1813 604L1707 571L1600 301L1493 388L1387 258L1280 291L1173 366L1067 399L960 237L853 291L747 377L640 431L533 280L427 431L320 269L213 345L107 355L0 517Z" fill="#002972"></path><path d="M0 757L107 573L213 552L320 552L427 649L533 509L640 584L747 649L853 411L960 476L1067 617L1173 541L1280 444L1387 357L1493 487L1600 530L1707 822L1813 789L1920 703L1920 539L1813 669L1707 679L1600 334L1493 431L1387 291L1280 388L1173 453L1067 485L960 366L853 323L747 496L640 474L533 323L427 507L320 388L213 442L107 388L0 604Z" fill="#002f99"></path><path d="M0 822L107 789L213 725L320 714L427 789L533 638L640 681L747 843L853 660L960 703L1067 725L1173 714L1280 660L1387 671L1493 660L1600 660L1707 887L1813 865L1920 768L1920 701L1813 787L1707 820L1600 528L1493 485L1387 355L1280 442L1173 539L1067 615L960 474L853 409L747 647L640 582L533 507L427 647L320 550L213 550L107 571L0 755Z" fill="#192fbd"></path><path d="M0 962L107 995L213 984L320 995L427 919L533 995L640 1027L747 1016L853 951L960 984L1067 941L1173 1027L1280 908L1387 984L1493 973L1600 1027L1707 1005L1813 1016L1920 908L1920 766L1813 863L1707 885L1600 658L1493 658L1387 669L1280 658L1173 712L1067 723L960 701L853 658L747 841L640 679L533 636L427 787L320 712L213 723L107 787L0 820Z" fill="#3e27df"></path><path d="M0 1081L107 1081L213 1081L320 1081L427 1081L533 1081L640 1081L747 1081L853 1081L960 1081L1067 1081L1173 1081L1280 1081L1387 1081L1493 1081L1600 1081L1707 1081L1813 1081L1920 1081L1920 906L1813 1014L1707 1003L1600 1025L1493 971L1387 982L1280 906L1173 1025L1067 939L960 982L853 949L747 1014L640 1025L533 993L427 917L320 993L213 982L107 993L0 960Z" fill="#6600ff"></path></svg>